<?xml version="1.0" standalone="no"?>
<!DOCTYPE svg PUBLIC "-//W3C//DTD SVG 20010904//EN"
 "http://www.w3.org/TR/2001/REC-SVG-20010904/DTD/svg10.dtd">
<svg version="1.0" xmlns="http://www.w3.org/2000/svg"
 width="700.000000pt" height="700.000000pt" viewBox="0 0 700.000000 700.000000"
 preserveAspectRatio="xMidYMid meet">
<metadata>
Created by potrace 1.14, written by Peter Selinger 2001-2017
</metadata>
<g transform="translate(0.000000,700.000000) scale(0.100000,-0.100000)"
fill="#000000" stroke="none">
<path d="M3733 6823 c4 -3 -1 -12 -11 -20 -15 -13 -15 -13 6 -3 19 9 23 30 5
30 -4 0 -3 -3 0 -7z"/>
<path d="M3650 6798 c0 -11 12 -10 30 2 12 7 10 9 -8 7 -12 0 -22 -5 -22 -9z"/>
<path d="M3670 6775 c-11 -13 -15 -13 -21 -3 -5 7 -9 8 -9 3 0 -6 5 -16 12
-23 7 -7 8 -12 4 -12 -5 0 -2 -8 5 -17 12 -14 12 -16 0 -8 -11 6 -13 4 -8 -8
4 -11 2 -14 -8 -10 -8 3 -12 10 -8 17 12 18 12 36 1 36 -6 0 -7 -7 -4 -15 3
-9 -1 -18 -9 -22 -13 -5 -13 -7 2 -19 10 -7 14 -14 9 -14 -5 0 -3 -6 3 -13 8
-10 7 -19 -4 -33 -13 -16 -14 -16 -9 -1 3 9 2 17 -3 17 -5 0 -9 -9 -10 -20 -1
-11 3 -20 8 -20 6 0 8 -4 4 -10 -3 -5 -13 -7 -23 -4 -9 4 -3 -4 13 -16 17 -12
22 -19 11 -16 -13 5 -17 2 -13 -8 4 -10 1 -13 -9 -9 -10 4 -11 9 -4 18 7 8 6
12 -4 12 -10 0 -13 -11 -11 -36 4 -32 3 -34 -7 -13 -6 12 -15 22 -21 22 -5 0
-4 -6 2 -14 9 -10 8 -16 -4 -26 -8 -7 -12 -16 -10 -21 3 -4 -8 -18 -24 -30
-28 -21 -29 -23 -12 -38 9 -9 11 -12 4 -7 -7 5 -13 5 -13 1 0 -4 -8 -1 -17 6
-15 13 -15 12 1 -12 14 -22 14 -29 4 -40 -25 -27 -43 -53 -32 -46 7 4 14 1 17
-7 4 -10 0 -12 -14 -9 -14 4 -18 1 -13 -10 4 -12 1 -14 -15 -10 -13 3 -21 1
-21 -6 0 -7 4 -10 8 -7 4 2 14 0 22 -6 12 -8 12 -9 -2 -4 -21 6 -23 -4 -5 -24
6 -8 2 -6 -10 3 -16 14 -23 15 -29 6 -4 -7 -3 -10 3 -6 6 4 13 -4 15 -18 3
-13 2 -24 -1 -23 -12 2 -41 -14 -41 -24 0 -5 5 -6 10 -3 6 3 10 0 10 -9 0 -8
3 -16 8 -19 4 -2 0 -2 -8 0 -37 11 -50 11 -56 1 -4 -7 -2 -8 4 -4 7 4 12 3 12
-3 0 -6 8 -8 18 -5 15 5 15 4 -1 -6 -10 -7 -21 -9 -24 -6 -3 3 -12 -1 -19 -9
-15 -14 -19 -29 -6 -22 4 3 13 -1 20 -9 11 -12 9 -14 -10 -15 -13 0 -17 -3
-10 -6 6 -2 12 -9 12 -14 0 -4 -7 -6 -15 -3 -11 4 -13 2 -9 -9 3 -9 14 -14 26
-12 11 3 17 1 14 -3 -7 -7 -11 -8 -37 -11 -5 0 -8 -5 -5 -10 7 -11 -22 -23
-36 -14 -6 3 -8 1 -4 -5 3 -5 3 -12 -1 -15 -5 -2 -2 -2 6 0 11 3 12 1 1 -12
-10 -12 -16 -13 -29 -3 -14 12 -15 11 -2 -5 8 -10 21 -15 30 -12 12 4 11 1 -2
-9 -14 -10 -17 -21 -12 -38 7 -21 6 -22 -7 -5 -13 17 -15 16 -38 -15 -14 -18
-25 -36 -25 -40 0 -3 -3 -10 -7 -14 -11 -11 -10 -24 3 -24 5 0 8 4 4 9 -3 5 0
13 7 17 7 4 10 4 6 -1 -4 -4 -3 -14 3 -21 8 -10 7 -17 -4 -29 -20 -19 -33 -20
-17 0 9 10 9 15 1 15 -6 0 -11 -5 -11 -11 0 -5 -4 -8 -9 -5 -11 7 -8 -21 4
-31 4 -5 5 -1 0 7 -5 8 -4 12 0 7 17 -15 13 -37 -8 -48 -21 -10 -21 -10 -3 5
11 9 16 17 10 17 -42 6 -51 5 -51 -8 0 -9 4 -10 11 -3 16 16 30 12 16 -5 -10
-12 -10 -18 -1 -29 10 -12 8 -13 -8 -9 -12 3 -21 1 -21 -6 0 -6 3 -10 8 -8 4
1 7 -3 7 -8 0 -6 -3 -9 -7 -8 -13 5 -9 -35 5 -41 6 -3 0 -3 -15 -1 -20 2 -25
0 -21 -11 3 -7 -2 -17 -11 -20 -9 -3 -13 -11 -10 -16 4 -6 -3 -8 -17 -4 -13 3
-18 3 -11 0 6 -3 12 -13 12 -22 0 -15 2 -15 10 -2 8 13 11 13 22 1 8 -9 9 -11
1 -7 -6 3 -14 2 -18 -3 -3 -6 -12 -8 -20 -5 -8 4 -12 11 -8 17 3 6 1 7 -5 3
-23 -14 2 -42 32 -37 5 1 4 -5 -4 -13 -7 -9 -18 -16 -24 -16 -6 0 -4 5 4 10 8
5 11 10 5 10 -5 0 -16 -4 -24 -9 -11 -7 -9 -10 8 -16 11 -3 21 -11 21 -16 0
-12 -13 -12 -28 1 -6 6 -10 7 -7 4 3 -4 -1 -14 -8 -22 -9 -13 -9 -14 1 -8 8 5
12 0 12 -13 0 -15 5 -19 18 -15 13 5 14 4 3 -4 -18 -13 -43 -4 -34 12 4 7 1 7
-9 -1 -8 -7 -18 -10 -21 -6 -4 3 -7 1 -7 -6 0 -7 7 -11 15 -8 21 9 27 -9 8
-24 -12 -10 -14 -10 -9 -1 4 6 2 12 -3 12 -6 0 -11 -7 -11 -16 0 -8 -4 -13 -8
-10 -5 3 -9 -1 -9 -9 0 -8 4 -15 9 -15 4 0 8 5 8 10 0 6 4 10 8 10 5 0 9 -7 9
-15 0 -8 -2 -13 -5 -10 -8 8 -42 -15 -42 -28 0 -7 3 -8 8 -2 9 13 32 17 32 6
0 -10 -30 -25 -44 -22 -5 1 -4 -5 4 -13 8 -10 9 -16 2 -16 -6 0 -9 -7 -5 -15
7 -20 18 -10 18 16 0 10 3 19 8 19 4 0 10 0 13 0 4 0 1 -7 -6 -15 -7 -8 -9
-15 -4 -15 4 0 -5 -13 -21 -30 -16 -16 -34 -30 -39 -30 -6 0 -2 7 8 15 11 8
14 15 8 15 -7 0 -15 0 -19 0 -13 0 -10 -24 5 -42 10 -12 11 -18 1 -24 -7 -4
-10 -3 -6 3 4 6 1 13 -6 16 -8 3 -12 -7 -12 -34 0 -22 3 -39 8 -39 4 0 7 -5 7
-11 0 -5 -4 -8 -9 -4 -5 3 -13 0 -17 -6 -4 -8 -3 -9 4 -5 7 4 12 2 12 -4 0 -6
6 -8 13 -4 6 4 9 4 5 -1 -4 -4 -2 -15 5 -23 10 -13 9 -14 -10 -4 -31 17 -40
15 -17 -3 19 -15 19 -15 -1 -9 -14 4 -16 3 -7 -3 7 -6 12 -16 10 -23 -2 -7 4
-15 12 -17 12 -3 12 -2 2 5 -10 7 -10 11 3 22 8 7 18 10 22 6 3 -3 2 -6 -4 -6
-6 0 -10 -11 -10 -25 0 -14 3 -25 8 -25 17 0 9 -19 -13 -30 -21 -10 -22 -10
-5 3 17 14 17 16 -4 31 -23 16 -44 12 -33 -6 4 -6 1 -8 -7 -6 -8 3 -12 12 -11
19 2 8 0 10 -5 6 -4 -5 -8 -12 -8 -15 0 -4 -4 -13 -8 -20 -5 -7 -2 -14 7 -18
9 -3 16 -11 16 -16 0 -7 -5 -7 -13 0 -10 9 -17 6 -30 -8 -17 -21 -9 -28 10 -9
8 8 13 7 18 -2 5 -8 4 -10 -3 -5 -7 4 -12 1 -12 -9 0 -9 -4 -14 -9 -10 -5 3
-13 0 -17 -6 -4 -8 -3 -9 4 -5 7 4 12 2 12 -4 0 -6 5 -8 12 -4 6 4 8 3 5 -3
-4 -6 -18 -9 -32 -8 -14 2 -25 -1 -25 -7 0 -5 9 -6 20 -3 12 4 20 2 20 -5 0
-6 5 -8 12 -4 6 4 8 3 5 -2 -7 -12 -48 -11 -68 1 -11 7 -12 6 -2 -7 7 -8 9
-19 5 -24 -4 -4 1 -2 11 5 9 7 17 9 17 3 0 -13 -29 -24 -42 -15 -7 3 -8 1 -4
-5 3 -6 -1 -15 -10 -20 -15 -8 -15 -10 0 -15 14 -6 15 -10 5 -29 -7 -13 -13
-25 -13 -28 -1 -3 -5 -4 -9 -2 -5 1 -6 -2 -2 -8 4 -7 12 -7 25 0 27 14 37 12
15 -3 -12 -10 -14 -16 -7 -21 7 -4 12 -13 12 -19 0 -7 -4 -6 -11 3 -9 12 -10
11 -6 -7 3 -13 1 -26 -5 -29 -6 -4 -6 -9 2 -14 9 -6 6 -10 -9 -15 -11 -3 -21
-13 -21 -21 0 -8 4 -13 9 -10 9 6 9 -49 0 -59 -4 -3 -6 6 -5 21 1 19 -5 28
-17 30 -9 1 -15 -2 -12 -6 3 -5 -2 -13 -11 -18 -15 -8 -15 -10 0 -15 11 -5 15
-3 10 5 -4 7 -3 8 5 4 9 -6 9 -11 1 -21 -8 -10 -8 -15 0 -20 8 -5 8 -11 -1
-21 -9 -11 -8 -15 5 -20 9 -3 16 -13 16 -22 0 -8 8 -24 17 -34 10 -11 13 -18
8 -16 -9 3 -15 -4 -15 -17 0 -3 8 -1 18 4 14 7 19 6 19 -4 0 -8 -4 -12 -9 -9
-4 3 -8 0 -8 -5 0 -6 8 -11 18 -12 10 0 12 -3 5 -6 -19 -7 -16 -31 5 -36 9 -2
26 4 37 12 18 15 19 15 7 -1 -9 -11 -10 -18 -2 -23 6 -4 8 -16 4 -27 -3 -12
-2 -18 3 -15 5 4 10 0 10 -8 0 -17 -8 -19 -25 -5 -9 7 -9 7 -2 -2 14 -16 13
-31 -2 -22 -7 4 -8 3 -4 -5 6 -9 11 -9 21 -1 9 7 16 6 24 -4 9 -11 9 -16 0
-22 -8 -5 -9 -3 -4 6 5 8 4 11 -3 6 -6 -4 -8 -14 -5 -22 3 -9 8 -12 12 -5 4 6
18 2 39 -11 37 -23 37 -24 16 -32 -9 -4 -13 -2 -8 5 4 8 0 7 -15 0 -28 -16
-27 -22 4 -17 13 3 28 0 31 -6 4 -6 3 -9 -2 -6 -5 3 -16 -1 -24 -10 -13 -14
-12 -15 3 -9 14 5 16 2 13 -18 -3 -15 -1 -23 5 -20 5 4 7 10 5 14 -3 3 4 7 14
7 10 0 18 -5 17 -11 -1 -5 7 -9 18 -7 18 2 18 2 3 -8 -10 -6 -18 -16 -18 -22
0 -7 5 -6 15 2 20 16 19 6 -1 -14 -8 -9 -11 -16 -6 -16 9 0 9 -8 3 -39 -1 -2
-8 2 -16 9 -10 9 -15 9 -15 1 0 -6 5 -11 11 -11 5 0 7 -5 4 -10 -4 -6 -11 -7
-17 -4 -7 4 -8 2 -4 -5 4 -6 12 -9 17 -6 5 4 9 1 9 -4 0 -6 -5 -11 -11 -11 -5
0 -7 -4 -4 -10 4 -6 -1 -7 -11 -3 -12 4 -14 8 -6 11 10 3 10 7 1 18 -6 8 -8
14 -3 14 11 0 -18 20 -30 20 -5 0 -2 -8 5 -17 13 -17 12 -17 -6 -2 -11 9 -28
15 -38 14 -9 -2 -15 1 -12 5 3 5 14 7 24 5 22 -4 22 18 1 38 -11 10 -11 8 0
-7 13 -16 12 -18 -5 -14 -12 2 -19 10 -17 21 3 20 2 20 -31 8 -18 -7 -24 -6
-24 4 0 8 3 12 7 10 4 -2 7 2 7 9 0 7 -7 13 -16 13 -35 0 -42 3 -35 16 5 9 4
9 -6 0 -7 -6 -19 -9 -26 -6 -8 3 -14 -1 -14 -10 0 -9 -4 -18 -9 -21 -5 -4 -7
3 -4 14 4 16 2 19 -13 14 -11 -4 -16 -4 -13 0 4 4 17 9 29 11 12 2 25 7 29 10
3 4 -7 4 -23 1 -21 -4 -26 -2 -23 9 3 7 0 21 -7 31 -10 13 -15 14 -21 4 -5 -8
-4 -11 2 -7 6 4 13 0 17 -8 3 -8 1 -15 -5 -15 -6 0 -7 -4 -4 -10 3 -5 1 -10
-5 -10 -7 0 -10 6 -7 14 3 8 -1 17 -10 20 -11 5 -14 2 -9 -10 5 -12 2 -15 -9
-10 -9 3 -13 2 -10 -4 3 -6 1 -10 -4 -10 -6 0 -11 -5 -11 -10 0 -7 8 -6 23 1
19 11 20 10 10 -3 -7 -8 -11 -24 -8 -37 2 -13 0 -19 -6 -15 -7 4 -9 -6 -6 -27
2 -19 9 -33 16 -31 7 1 5 -8 -5 -23 -9 -14 -17 -25 -18 -25 -1 0 -2 16 -1 35
2 28 -3 38 -19 46 -18 9 -19 8 -6 -3 16 -14 25 -72 9 -63 -5 4 -4 -5 3 -20 8
-18 14 -22 20 -13 4 7 8 8 8 2 0 -5 -5 -15 -11 -21 -7 -7 -7 -13 0 -17 5 -4 8
-13 4 -21 -9 -25 -21 -17 -18 13 1 16 -4 37 -11 47 -8 10 -14 14 -14 8 0 -7 5
-15 12 -19 8 -5 6 -11 -6 -19 -15 -12 -15 -13 0 -19 11 -4 13 -10 6 -19 -11
-15 -12 -47 0 -47 4 0 8 -5 8 -10 0 -7 -6 -7 -18 -1 -14 7 -19 6 -19 -4 0 -7
6 -11 13 -8 6 2 15 0 19 -6 6 -10 -8 -16 -28 -12 -5 1 -6 -3 -2 -9 12 -19 43
8 41 35 -2 14 1 25 5 25 5 0 9 -7 9 -15 0 -8 5 -15 12 -15 6 0 3 -7 -8 -15
-17 -13 -17 -16 -4 -26 13 -9 12 -10 -2 -5 -10 3 -25 3 -33 0 -14 -6 -13 -8 1
-19 12 -8 14 -14 6 -19 -15 -9 -16 -26 -1 -26 5 0 7 5 3 12 -4 6 -3 8 4 4 6
-3 9 -15 7 -26 -2 -11 1 -20 6 -20 6 0 8 -4 4 -9 -3 -6 3 -14 12 -20 10 -6 13
-11 7 -11 -15 0 -54 48 -43 54 5 2 4 3 -3 2 -7 -2 -13 -8 -13 -14 0 -7 -4 -11
-10 -10 -5 2 -9 7 -7 11 1 5 -2 5 -8 2 -8 -5 -7 -12 3 -23 8 -10 13 -22 10
-28 -4 -11 32 -28 52 -24 6 1 4 -4 -2 -11 -14 -14 -18 -33 -5 -25 5 3 8 -8 8
-24 0 -17 -2 -27 -5 -24 -3 3 -6 13 -6 22 0 9 -6 16 -12 15 -17 -4 -17 9 0 26
10 11 9 12 -2 6 -10 -6 -12 -4 -6 6 5 8 4 11 -1 6 -5 -5 -9 -12 -9 -15 0 -4
-4 -13 -8 -19 -7 -12 3 -17 24 -15 11 2 7 -48 -4 -55 -6 -4 -7 -1 -2 7 5 9 4
11 -3 6 -8 -5 -10 -2 -6 8 3 9 2 16 -3 16 -5 0 -9 -9 -10 -19 -2 -21 21 -35
40 -25 7 3 4 -1 -7 -10 -10 -8 -15 -20 -10 -27 5 -9 11 -7 21 6 7 11 13 14 13
9 0 -6 -5 -15 -11 -21 -8 -8 -4 -17 13 -32 21 -20 21 -22 3 -16 -20 7 -20 6
-1 -9 11 -9 15 -16 9 -16 -14 0 -35 25 -27 33 3 3 -5 3 -18 -1 -18 -5 -19 -7
-5 -10 19 -4 23 -17 7 -27 -5 -3 -10 -11 -10 -16 0 -6 5 -7 10 -4 6 3 10 -2
10 -13 0 -10 10 -23 22 -29 19 -8 19 -10 5 -16 -12 -4 -21 2 -31 21 -14 25
-15 25 -13 5 1 -13 5 -23 9 -23 16 0 7 -39 -9 -43 -17 -4 -17 -5 0 -6 10 0 16
-5 12 -10 -7 -12 29 -33 39 -24 3 3 6 1 6 -6 0 -9 -9 -11 -27 -7 -20 5 -24 4
-13 -3 12 -8 12 -13 -5 -30 -10 -12 -15 -24 -12 -28 4 -3 7 -1 7 6 0 7 5 9 12
5 6 -4 8 -3 5 3 -4 6 -1 16 6 22 11 8 13 4 9 -21 -3 -17 -1 -28 4 -25 5 3 10
-15 11 -39 0 -24 -2 -42 -7 -39 -4 3 -6 18 -5 35 2 25 0 28 -11 19 -11 -9 -11
-15 -3 -25 6 -8 8 -14 4 -14 -4 0 -2 -6 4 -13 6 -8 8 -17 4 -20 -3 -4 -4 -7 0
-7 3 0 13 7 21 16 9 8 16 11 16 5 0 -5 -4 -13 -10 -16 -5 -3 -10 -11 -10 -17
0 -7 5 -6 15 2 12 10 16 9 21 -3 3 -9 2 -21 -2 -28 -5 -8 -3 -9 6 -4 10 6 12
4 7 -8 -6 -17 17 -31 36 -21 7 3 3 -2 -8 -11 -20 -16 -20 -17 0 -13 11 2 20
-2 20 -9 0 -6 4 -15 9 -20 5 -5 6 -3 2 5 -4 6 -2 12 3 12 6 0 11 -6 11 -12 0
-9 4 -8 10 2 5 8 10 10 10 5 0 -6 -5 -16 -12 -23 -9 -9 -9 -12 1 -12 7 0 9 -5
6 -10 -3 -6 1 -13 10 -16 10 -4 14 -13 10 -23 -5 -13 -4 -14 7 -3 11 11 10 15
-2 25 -17 13 -20 31 -6 44 5 4 6 3 3 -4 -4 -6 1 -19 10 -29 9 -9 17 -28 18
-43 0 -16 6 -26 15 -26 9 0 14 -8 12 -20 -2 -17 -1 -17 8 -5 9 13 11 13 20 0
5 -8 10 -11 10 -6 0 5 -11 19 -25 32 -14 13 -25 18 -25 12 0 -6 -3 -9 -6 -5
-3 3 -1 13 4 23 9 16 10 15 16 -4 6 -19 16 -26 36 -24 3 0 6 -7 7 -16 4 -49
23 -110 23 -74 0 7 9 12 20 12 11 0 20 -4 20 -10 0 -5 -8 -7 -17 -4 -15 5 -15
4 -3 -5 11 -7 20 -5 34 7 13 12 17 12 11 2 -5 -8 -10 -25 -11 -38 -3 -23 -2
-23 11 -6 11 16 16 17 27 6 11 -11 10 -12 -3 -7 -10 4 -16 0 -16 -9 0 -8 6
-12 14 -9 9 4 11 0 6 -13 -6 -17 -5 -17 10 -5 18 14 20 12 20 -32 0 -14 2 -15
14 -6 10 9 11 15 3 23 -5 5 -10 15 -10 21 0 5 10 -5 22 -23 13 -22 26 -31 36
-27 12 4 13 3 3 -9 -10 -12 -9 -18 6 -33 16 -16 17 -21 5 -32 -7 -7 -16 -10
-19 -7 -4 3 -17 -1 -31 -10 -15 -10 -21 -11 -17 -3 6 9 3 11 -8 6 -20 -8 -47
1 -47 15 0 7 4 7 13 0 13 -11 46 -10 65 2 6 4 18 4 25 0 9 -6 9 -5 0 8 -7 8
-10 17 -7 21 3 3 0 15 -6 27 -8 15 -15 19 -22 12 -12 -12 -1 -35 13 -27 5 4 9
3 9 -2 0 -18 -16 -30 -37 -28 -12 1 -19 -3 -16 -8 3 -5 0 -8 -8 -5 -8 3 -14
10 -14 16 0 7 -4 12 -10 13 -5 0 -16 5 -22 11 -7 6 -13 7 -13 4 0 -4 -10 -1
-22 6 -29 15 -50 19 -42 7 3 -5 0 -9 -5 -9 -6 0 -11 4 -11 9 0 5 -7 11 -15 15
-13 5 -13 2 1 -19 15 -23 15 -24 -3 -20 -10 2 -27 7 -38 11 -17 7 -18 5 -8 -8
7 -8 10 -17 7 -21 -3 -3 -3 -15 1 -28 6 -17 9 -19 16 -8 7 10 8 8 6 -8 -2 -12
-7 -26 -12 -30 -4 -5 -6 -3 -2 2 3 6 -1 19 -9 30 -14 19 -15 19 -11 0 2 -11
10 -32 17 -48 13 -26 14 -27 33 -10 20 18 20 18 4 -7 -9 -13 -17 -29 -17 -35
0 -5 5 -2 11 7 8 14 13 16 29 6 17 -11 17 -13 3 -23 -12 -9 -13 -14 -4 -19 9
-6 9 -11 -1 -24 -9 -11 -9 -13 -1 -9 7 5 16 -1 23 -13 6 -11 8 -20 4 -20 -3 0
-1 -7 6 -15 7 -8 18 -15 24 -15 6 0 4 5 -4 10 -13 8 -13 10 1 10 18 0 34 -27
18 -32 -5 -2 1 -9 13 -17 22 -14 22 -13 8 5 -8 10 -10 16 -6 12 5 -4 16 -2 25
5 14 11 14 10 2 -5 -7 -10 -10 -18 -6 -18 4 0 1 -8 -6 -17 -12 -15 -12 -16 8
-11 16 4 20 2 16 -8 -3 -9 1 -14 12 -14 10 0 13 5 9 12 -4 7 -3 8 5 4 9 -6 9
-11 -1 -24 -11 -13 -10 -15 4 -9 10 3 20 1 24 -5 4 -6 3 -8 -4 -4 -6 3 -13 2
-17 -4 -5 -9 9 -15 18 -7 2 1 11 -4 21 -12 12 -10 13 -17 6 -26 -8 -9 -8 -15
0 -20 6 -3 7 -11 4 -17 -4 -6 -3 -9 2 -6 9 6 35 -16 33 -28 0 -3 3 -9 7 -12 4
-4 4 -1 0 6 -8 14 10 17 19 3 3 -6 -3 -14 -12 -20 -10 -6 -13 -11 -6 -11 6 0
15 5 18 10 4 6 11 8 16 4 6 -3 5 -12 -3 -22 -11 -15 -11 -15 4 -4 14 11 17 10
23 -8 4 -13 12 -19 21 -16 9 3 19 -3 25 -17 l10 -22 -5 23 c-3 13 -2 21 1 18
4 -3 12 -1 19 5 11 9 15 7 21 -7 13 -34 36 -54 49 -43 8 7 14 7 19 -1 3 -6 11
-8 16 -4 6 3 13 -3 16 -15 3 -11 9 -18 14 -15 5 3 4 15 -2 27 -10 21 -9 21 5
3 9 -10 13 -23 10 -27 -3 -5 0 -9 6 -9 6 0 9 -4 5 -9 -3 -5 -1 -12 4 -15 5 -4
13 -1 17 5 5 8 3 9 -6 4 -9 -5 -11 -4 -6 3 10 17 23 15 30 -4 3 -8 2 -12 -4
-9 -6 3 -10 1 -10 -4 0 -6 9 -11 20 -11 11 0 20 -7 20 -15 0 -9 -6 -12 -17 -9
-15 5 -15 4 -3 -4 9 -7 18 -8 26 -1 8 7 15 6 20 -2 4 -8 3 -9 -4 -5 -8 4 -12
0 -12 -11 0 -11 -5 -24 -11 -30 -7 -7 -8 -13 0 -17 7 -5 7 -15 1 -32 -7 -17
-7 -23 1 -19 6 4 10 1 8 -6 -3 -29 2 -38 19 -33 9 2 7 -1 -6 -7 -21 -12 -27
-34 -7 -27 6 2 9 6 8 11 -2 4 2 7 7 7 13 0 13 -6 -6 -41 -8 -17 -13 -33 -10
-37 3 -3 6 1 6 8 0 7 3 10 7 6 8 -8 14 -34 14 -59 0 -13 5 -16 20 -12 11 4 18
3 17 -2 -1 -4 3 -17 9 -29 10 -16 9 -21 -2 -21 -7 0 -11 6 -8 13 6 16 -14 27
-23 13 -5 -8 -3 -9 5 -5 8 5 12 3 10 -5 -3 -27 1 -40 11 -34 5 3 7 0 4 -9 -3
-8 -1 -24 6 -35 16 -31 3 -25 -15 7 -9 15 -13 18 -9 7 8 -22 10 -82 3 -104 -2
-7 3 -16 11 -18 10 -3 11 -2 3 4 -7 5 -9 14 -4 22 7 10 11 8 16 -9 5 -15 2
-25 -6 -31 -11 -7 -11 -9 -1 -9 7 0 11 -4 8 -9 -3 -5 2 -8 11 -7 9 0 18 -6 20
-14 4 -13 3 -13 -6 0 -8 12 -10 11 -8 -7 1 -17 5 -20 19 -12 11 6 18 6 18 0 0
-5 -7 -12 -15 -15 -9 -3 -15 -14 -13 -23 2 -12 -2 -17 -12 -15 -8 2 -11 0 -7
-5 5 -4 14 -8 20 -8 5 0 12 -6 15 -14 3 -8 0 -11 -5 -8 -5 3 -9 -3 -9 -14 0
-19 1 -19 13 -3 7 10 16 14 20 11 4 -4 2 -12 -4 -18 -8 -8 -7 -21 3 -45 8 -19
11 -34 7 -34 -5 0 -1 -5 7 -11 13 -8 12 -9 -4 -7 -10 2 -21 -4 -23 -12 -4 -13
-3 -13 6 0 8 11 11 12 11 2 0 -7 4 -11 8 -8 4 2 9 -6 10 -20 1 -13 -3 -24 -9
-24 -6 0 -9 7 -6 14 4 10 1 13 -8 9 -12 -4 -11 -10 5 -33 22 -32 26 -45 8 -34
-7 5 -8 3 -3 -5 5 -9 14 -6 33 11 14 13 22 18 19 12 -4 -7 0 -15 8 -18 12 -4
13 -10 5 -25 -13 -26 -13 -34 3 -25 9 6 9 4 1 -7 -18 -24 -24 -48 -12 -55 7
-4 8 -3 4 4 -4 7 -2 12 4 12 7 0 9 -8 5 -21 -5 -16 -4 -19 5 -14 9 6 11 4 6
-4 -6 -9 -13 -8 -29 6 -21 18 -21 18 -7 -2 8 -11 23 -27 32 -36 12 -11 14 -19
7 -26 -6 -6 -11 -23 -11 -39 -1 -53 1 -56 24 -48 20 6 21 5 9 -9 -7 -9 -17
-14 -22 -11 -5 3 -9 0 -9 -6 0 -8 7 -9 18 -5 9 4 22 8 29 9 16 2 18 -18 1 -22
-9 -2 -8 0 2 7 9 7 10 11 3 11 -17 0 -23 -14 -13 -29 4 -8 13 -10 20 -6 9 5
11 4 6 -3 -4 -7 -2 -12 5 -12 7 0 4 -7 -7 -15 -10 -8 -15 -15 -10 -15 5 0 3
-6 -3 -14 -9 -10 -9 -16 -1 -21 8 -5 8 -11 -1 -21 -8 -10 -8 -14 0 -14 6 0 11
5 11 12 0 7 6 6 18 -4 9 -9 24 -13 32 -11 13 4 13 3 0 -6 -8 -6 -19 -6 -25 -1
-6 5 -17 5 -25 -2 -13 -8 -12 -9 2 -5 21 7 41 -15 28 -31 -7 -9 -7 -9 2 -2 17
14 34 12 20 -2 -7 -7 -12 -17 -12 -22 0 -6 5 -3 11 7 8 13 14 15 23 8 9 -8 13
-7 13 4 0 8 -5 11 -10 8 -6 -4 -7 -1 -2 7 5 8 4 11 -1 7 -6 -3 -16 -1 -24 5
-12 8 -12 9 3 4 10 -3 17 0 17 7 0 7 9 -1 19 -16 10 -16 18 -36 16 -45 -1 -10
0 -12 2 -5 2 7 12 9 21 6 13 -4 12 -2 -3 10 -11 9 -16 17 -11 17 5 0 3 6 -3
14 -8 10 -9 16 -1 21 5 3 10 5 11 3 0 -2 2 -11 4 -21 6 -31 15 -32 15 -2 0 24
2 26 17 14 10 -8 14 -9 10 -2 -4 6 -3 14 2 17 5 4 8 17 6 31 -1 14 2 28 7 31
5 4 -5 19 -24 35 l-33 29 37 -20 c28 -17 38 -18 44 -8 4 7 4 10 -1 6 -9 -9
-45 9 -45 22 0 5 9 7 20 5 11 -2 18 0 15 5 -3 5 -16 7 -30 4 -19 -3 -23 -1
-20 16 2 11 -1 22 -6 26 -6 3 -6 11 -1 17 4 7 8 19 7 27 0 8 4 19 10 23 6 6 4
7 -5 4 -28 -9 -53 19 -46 50 l7 28 -16 -23 c-9 -12 -13 -28 -9 -35 5 -9 4 -9
-6 0 -11 10 -11 15 0 28 7 8 9 15 5 15 -4 0 -2 7 5 15 15 18 0 20 -20 2 -12
-10 -12 -9 -2 4 8 11 8 19 1 26 -8 8 -7 13 2 18 7 5 10 4 6 -2 -4 -6 -1 -13 6
-16 8 -3 14 1 14 9 0 8 -4 14 -9 14 -5 0 -7 14 -4 30 2 17 0 28 -5 25 -5 -4
-16 -2 -25 3 -15 8 -15 10 0 15 12 5 15 3 10 -6 -5 -9 -4 -9 6 0 9 9 8 15 -9
32 -12 12 -21 26 -21 31 0 6 -5 10 -11 10 -8 0 -8 -5 1 -15 8 -9 8 -15 2 -15
-15 0 -20 21 -11 53 4 15 4 25 -1 22 -14 -8 -23 16 -11 28 20 20 11 30 -11 11
l-21 -19 15 25 c12 21 15 52 9 100 -1 13 -31 13 -31 -1 0 -5 5 -7 12 -3 7 5 8
3 3 -6 -5 -8 -4 -11 1 -7 6 3 10 -5 10 -18 0 -13 -4 -21 -8 -19 -5 3 -6 10 -3
15 4 5 2 9 -3 9 -13 0 -23 27 -16 44 3 8 13 12 22 9 15 -4 15 -3 2 6 -9 6 -18
7 -24 1 -6 -6 -15 -10 -20 -10 -6 0 -4 5 4 10 13 9 13 11 0 20 -9 6 -11 10 -3
10 7 0 17 9 23 20 9 16 8 19 -6 13 -11 -4 -15 -2 -11 4 4 6 -1 17 -10 24 -12
10 -14 10 -9 2 4 -7 3 -13 -3 -13 -6 0 -8 15 -6 36 4 26 2 33 -7 28 -10 -6
-11 -4 0 7 15 16 16 33 0 23 -7 -4 -8 -3 -4 5 9 14 29 3 23 -13 -3 -7 1 -13 9
-13 10 0 10 6 -3 28 -12 19 -20 25 -28 19 -8 -7 -12 -5 -12 5 0 8 4 12 9 9 4
-3 8 -1 8 5 0 5 9 8 20 6 11 -2 18 0 15 5 -3 5 -17 7 -30 4 -14 -2 -25 0 -25
6 0 6 -5 8 -12 4 -7 -4 -8 -3 -4 4 4 6 13 9 20 6 8 -3 17 -1 21 5 3 7 0 8 -9
5 -9 -3 -16 -1 -16 5 0 6 8 11 18 12 11 0 12 2 4 6 -7 3 -23 -3 -35 -13 l-21
-19 18 28 c14 23 15 31 5 44 -7 8 -14 23 -16 34 -1 10 -4 24 -5 31 -2 7 3 12
10 11 15 -4 16 14 0 19 -16 6 -21 50 -6 60 8 6 4 7 -12 2 -14 -3 -22 -3 -18 1
4 5 0 14 -10 22 -15 13 -14 13 7 3 17 -9 26 -9 35 0 6 6 7 11 1 10 -23 -5 -34
1 -29 15 4 8 10 13 14 10 5 -3 12 0 16 6 4 7 3 9 -3 6 -6 -4 -16 0 -23 8 -10
12 -10 15 1 15 11 0 11 2 -1 10 -12 8 -12 10 -1 10 11 0 11 3 1 15 -7 8 -16
12 -21 9 -5 -3 -9 0 -9 5 0 6 5 11 11 11 5 0 7 5 3 11 -4 8 -9 7 -15 -2 -8
-13 -10 -12 -13 10 0 5 -5 13 -10 18 -5 4 -7 3 -3 -3 3 -6 0 -11 -7 -11 -7 0
-13 6 -13 13 0 7 4 11 9 8 7 -5 12 10 9 29 0 4 4 7 10 7 5 0 8 4 5 9 -3 5 1
12 10 15 24 9 36 7 28 -6 -4 -7 -3 -8 5 -4 6 4 9 11 6 16 -3 5 3 15 15 22 11
7 20 17 20 22 0 4 -6 4 -13 -2 -10 -8 -13 -6 -14 11 -2 17 0 19 7 7 9 -14 11
-13 14 9 0 5 3 11 6 13 3 2 4 1 3 -1 -2 -2 3 -11 10 -19 10 -13 9 -14 -2 -7
-10 5 -12 4 -7 -3 5 -9 14 -7 31 5 12 10 21 21 19 24 -2 4 3 13 12 20 13 10
17 10 25 -2 5 -8 9 -9 9 -3 0 6 -7 17 -15 24 -17 14 -20 30 -4 30 5 0 8 -4 5
-8 -2 -4 4 -13 14 -20 13 -7 21 -8 25 -2 4 6 1 9 -7 8 -7 -2 -12 3 -10 11 2 8
-3 18 -10 23 -9 7 -5 8 13 5 15 -2 26 1 26 8 0 7 -11 11 -25 9 -13 -1 -21 0
-18 4 4 3 14 7 24 8 9 1 26 5 37 9 16 7 18 6 8 -6 -7 -7 -13 -17 -13 -23 0 -5
6 -1 14 10 9 12 11 23 5 30 -6 7 0 10 21 9 24 -1 28 1 19 12 -9 10 -6 13 17
13 22 0 25 3 14 9 -8 6 -18 7 -24 4 -5 -3 -6 -2 -3 4 3 5 19 8 35 5 17 -2 33
1 37 9 6 9 3 11 -8 6 -8 -3 -18 0 -21 8 -3 10 0 12 11 8 9 -4 14 -2 11 3 -3 5
5 17 19 28 l25 19 -17 -29 -17 -29 21 25 c11 14 21 29 21 34 0 4 7 6 14 3 11
-4 13 -1 9 10 -5 12 -3 14 7 8 9 -5 11 -4 6 4 -4 6 -13 8 -19 4 -18 -11 -38
-12 -31 -1 3 5 9 7 12 4 3 -3 11 -1 19 5 10 9 17 8 30 -2 15 -13 15 -12 3 8
-11 17 -18 20 -34 12 -21 -10 -21 -10 -2 5 11 9 24 16 29 16 4 0 6 4 3 9 -3 5
1 14 9 21 8 7 12 17 8 23 -4 6 -1 7 6 3 9 -6 9 -12 -2 -24 -14 -17 -15 -48 -1
-60 4 -4 5 0 2 9 -3 8 0 26 7 39 7 13 11 31 8 39 -3 11 0 10 11 -3 19 -23 21
-14 5 17 -12 22 -11 22 9 4 15 -14 22 -15 28 -6 4 7 3 10 -4 5 -6 -4 -16 4
-23 16 -12 22 -11 22 6 8 17 -14 18 -13 12 3 -4 11 -3 16 3 12 6 -3 10 -1 10
4 0 6 -6 11 -12 11 -9 0 -9 3 1 9 16 11 41 4 41 -11 0 -6 -8 -4 -17 3 -16 13
-17 12 -4 -4 20 -26 38 -5 19 22 -8 12 -18 18 -21 14 -4 -3 -7 -4 -7 0 0 9 60
36 73 33 7 -1 9 -1 4 1 -4 3 -4 10 -1 15 4 6 2 8 -3 5 -6 -4 -13 1 -15 11 -3
11 0 19 8 19 7 0 10 -5 7 -11 -3 -6 -3 -8 2 -4 4 4 14 3 21 -3 8 -7 14 -6 20
2 4 7 3 9 -3 6 -6 -4 -18 2 -28 13 -10 11 -15 20 -10 20 4 0 1 8 -6 17 -13 16
-12 17 3 4 10 -7 16 -17 13 -20 -2 -4 2 -8 10 -8 10 0 9 8 -7 31 l-22 31 26
-23 c19 -17 28 -20 33 -11 5 7 4 10 -3 5 -13 -8 -31 23 -24 43 3 9 0 11 -8 6
-8 -5 -11 -4 -7 3 4 5 18 9 31 8 38 -5 48 6 37 37 -7 17 -7 28 0 32 5 4 7 10
4 15 -3 5 5 7 17 5 20 -4 21 -3 7 8 -14 11 -13 15 13 42 15 17 28 35 28 40 0
6 -5 3 -10 -5 -8 -12 -9 -9 -8 12 2 24 4 26 18 13 15 -13 17 -13 17 0 0 8 -5
11 -10 8 -6 -4 -8 1 -4 11 4 10 3 15 -3 11 -6 -3 -10 -1 -10 4 0 6 7 11 15 11
8 0 15 -4 15 -10 0 -5 6 -10 13 -10 7 1 4 8 -8 18 -11 10 -21 24 -23 32 -3 12
-1 13 9 3 20 -20 31 -15 17 6 -7 11 -16 17 -22 14 -5 -3 -6 -1 -2 6 6 9 11 9
24 -1 13 -11 14 -11 8 0 -4 7 -2 20 6 29 12 15 11 15 -10 4 -13 -7 -28 -10
-35 -7 -7 2 -4 5 6 5 10 1 16 5 13 9 -2 4 -1 14 4 22 5 8 5 19 0 25 -6 7 -1
11 15 11 l24 0 -22 -30 c-17 -24 -17 -28 -3 -17 15 13 19 13 27 0 5 -8 9 -9 9
-4 0 6 -6 17 -12 24 -11 11 -10 13 4 8 13 -4 15 -2 11 10 -5 12 -3 14 8 8 12
-8 12 -6 0 8 -12 16 -8 22 12 18 5 -1 6 3 2 9 -5 8 -11 8 -21 -1 -7 -6 -12
-15 -9 -19 3 -5 -5 -6 -17 -2 -16 4 -18 7 -8 10 16 5 30 22 30 37 0 5 -5 4
-12 -3 -7 -7 -16 -12 -22 -12 -5 0 -1 6 10 14 13 10 23 11 32 4 7 -6 15 -8 19
-4 3 3 1 6 -7 6 -10 0 -10 4 1 18 12 15 12 16 -2 4 -13 -10 -19 -9 -30 5 -12
15 -12 16 6 9 19 -7 19 -6 3 10 -22 22 -42 10 -27 -18 9 -16 8 -19 -3 -12 -24
15 -40 13 -33 -4 5 -13 3 -14 -6 -5 -14 14 -2 36 14 26 7 -4 6 0 -2 10 -7 9
-19 17 -25 17 -6 0 -4 -5 4 -10 12 -8 9 -10 -11 -10 -19 0 -29 -8 -37 -27 -12
-28 -12 -28 4 -5 9 12 21 22 27 22 5 0 3 -8 -6 -18 -10 -10 -14 -21 -11 -25 3
-3 -2 -4 -12 -3 -10 2 -20 10 -23 19 -5 13 -8 11 -18 -9 -10 -22 -10 -24 3
-14 11 10 14 9 14 -2 0 -8 -10 -14 -24 -14 -14 0 -22 4 -20 8 3 4 0 8 -6 8 -6
0 -9 4 -6 9 3 5 -2 8 -11 7 -9 0 -18 5 -21 13 -3 8 0 11 7 7 7 -5 9 -1 5 8 -3
9 -10 13 -15 10 -5 -3 -6 2 -3 10 5 13 9 12 26 -7 11 -12 17 -17 14 -11 -3 7
6 29 20 49 14 21 26 46 27 56 1 14 4 15 14 7 18 -14 18 32 1 52 -7 8 -2 6 11
-5 22 -18 24 -18 18 -2 -4 9 -2 17 4 17 6 0 7 6 4 13 -4 6 4 1 16 -13 18 -21
21 -21 15 -5 -9 23 -18 76 -10 57 3 -6 11 -9 17 -5 8 4 8 1 -1 -9 -10 -12 -10
-17 1 -27 18 -14 30 -2 16 16 -6 7 -8 13 -4 13 5 0 0 10 -11 21 -19 22 -19 22
3 10 26 -13 36 -14 28 -2 -3 6 3 14 12 20 10 6 13 11 7 11 -5 0 -15 -5 -20
-10 -8 -8 -15 -6 -24 5 -11 14 -11 16 1 13 8 -2 13 3 11 12 -3 12 -1 13 9 3
18 -18 32 -16 25 3 -3 8 -2 12 4 9 6 -3 10 -1 10 5 0 6 5 8 11 4 14 -8 29 14
22 33 -3 7 -10 10 -17 7 -6 -3 -2 2 8 10 24 20 13 34 -11 15 -17 -12 -17 -12
-1 5 17 19 43 13 35 -8 -7 -18 8 -41 17 -27 4 6 2 11 -4 11 -6 0 -8 5 -5 10 5
8 11 8 19 1 9 -8 13 -7 13 4 0 8 -2 13 -5 10 -5 -5 -32 20 -32 30 0 3 9 1 20
-5 22 -12 40 -6 39 13 0 9 -2 9 -6 0 -2 -7 -8 -13 -13 -13 -9 0 -8 19 2 36 4
6 1 20 -7 30 -11 13 -15 15 -13 4 2 -8 7 -18 13 -22 5 -4 0 -6 -12 -5 -12 0
-21 6 -20 12 1 5 -5 9 -13 7 -8 -2 -11 0 -7 5 5 4 14 8 20 8 7 0 12 7 12 15 0
8 -5 15 -12 15 -6 0 -14 3 -18 7 -19 19 29 -2 52 -23 15 -13 22 -17 15 -8 -6
9 -8 20 -4 24 4 5 1 5 -7 0 -10 -6 -12 -2 -7 13 5 14 0 25 -16 37 -17 13 -18
16 -5 11 12 -4 17 -2 15 6 -3 7 -10 13 -16 13 -5 0 -14 4 -19 8 -4 5 -1 7 7 5
8 -1 15 4 15 12 0 8 -5 15 -12 15 -6 0 -14 3 -18 7 -8 8 13 4 38 -7 14 -6 15
-10 6 -21 -7 -9 -8 -14 -1 -14 14 0 23 28 11 35 -5 4 -6 11 -3 17 4 6 3 9 -2
5 -5 -3 -14 6 -21 19 -6 13 -7 22 -2 18 5 -3 9 -1 9 5 0 5 9 8 19 6 14 -3 18
1 14 12 -3 8 -9 11 -12 6 -8 -11 -62 -13 -55 -2 2 4 12 5 21 2 12 -5 14 -3 8
7 -6 9 -4 11 5 5 8 -5 11 -3 8 6 -3 8 -12 14 -21 14 -8 0 -19 4 -24 8 -4 5 -3
8 2 7 20 -4 35 0 35 11 0 5 -5 7 -12 3 -7 -4 -8 -3 -4 4 4 6 13 9 22 5 11 -4
12 -9 3 -19 -7 -9 -8 -14 -1 -14 14 0 23 28 11 36 -6 4 -5 12 3 22 12 15 11
16 -4 3 -20 -15 -25 -2 -6 17 7 7 8 12 2 12 -5 0 -15 -5 -21 -11 -8 -8 -13 -8
-18 0 -4 7 -1 10 7 9 7 -2 12 3 10 11 -2 8 3 11 11 8 7 -3 19 5 27 16 12 20
12 21 -4 8 -9 -8 -19 -11 -23 -8 -3 4 -12 2 -19 -4 -8 -7 -14 -7 -19 1 -4 6
-1 9 7 8 7 -2 12 3 10 11 -2 11 0 12 11 3 24 -20 28 -1 4 20 -12 11 -16 17 -9
13 6 -3 12 -1 12 4 0 10 -14 15 -33 12 -5 -1 -5 3 -2 9 5 8 15 6 31 -5 27 -18
30 0 4 23 -13 12 -13 13 3 8 12 -4 17 -2 14 6 -2 7 -11 12 -20 12 -9 -1 -16 1
-15 5 0 3 -1 8 -2 11 -7 20 -7 41 2 47 7 4 8 1 3 -7 -5 -9 -4 -11 4 -6 6 4 9
12 5 17 -3 5 -9 7 -14 4 -5 -3 -8 4 -7 15 1 11 7 20 14 20 7 0 13 4 13 8 0 5
-7 9 -15 9 -14 0 -19 -10 -16 -29 2 -13 -6 -9 -20 9 -12 14 -12 15 0 9 10 -7
12 -3 6 15 -5 19 -4 21 4 9 8 -11 11 -12 11 -2 0 7 4 10 10 7 6 -3 7 1 4 9 -3
9 -10 14 -14 13 -4 -1 -9 3 -10 8 -3 22 -33 45 -45 35 -8 -7 -12 -5 -12 5 0 8
3 12 7 10 4 -3 14 3 22 13 30 34 29 40 -2 36 -26 -5 -37 4 -27 21 1 2 -7 11
-18 20 l-20 15 20 -7 c18 -6 19 -5 5 13 -11 15 -11 16 0 7 19 -17 30 -16 30 3
0 8 -4 13 -8 10 -5 -3 -9 1 -9 9 0 8 3 13 5 10 3 -3 12 1 21 8 14 10 14 10 4
-3 -10 -13 -9 -16 7 -16 17 0 17 2 4 28 -8 15 -12 28 -8 28 4 0 1 7 -6 15 -10
12 -10 15 0 15 7 0 10 7 7 14 -4 10 -1 13 9 9 7 -3 14 0 14 6 0 6 -4 11 -10
11 -5 0 -7 7 -4 15 5 11 1 14 -12 9 -12 -3 -9 1 6 11 16 9 19 14 8 13 -9 -2
-17 2 -17 7 0 6 8 9 17 8 9 -1 11 0 5 3 -10 4 -10 11 -2 27 9 20 9 20 -4 5
-16 -20 -32 -25 -21 -6 11 17 13 59 3 52 -5 -3 -8 5 -6 18 2 20 -2 23 -33 22
-19 -1 -29 1 -22 3 6 3 10 9 7 13 -3 5 0 18 7 29 10 16 15 18 28 9 8 -7 7 -3
-4 8 -13 13 -20 15 -23 7 -3 -7 -12 -13 -21 -13 -15 1 -15 2 1 11 9 5 17 16
17 24 0 7 6 16 13 19 6 4 2 4 -9 2 -22 -4 -27 15 -9 31 4 4 5 3 2 -3 -3 -6 0
-11 7 -11 7 0 13 6 13 13 0 7 -3 13 -6 12 -26 -3 -31 3 -16 18 13 13 14 19 4
25 -7 4 -17 5 -23 2 -5 -3 -6 -1 -2 6 4 6 12 8 18 5 6 -4 8 -2 4 4 -3 5 0 13
6 15 8 3 6 6 -5 6 -9 1 -16 4 -16 9 5 32 -3 39 -42 37 -28 -1 -44 -7 -51 -19
-8 -14 -7 -17 3 -13 8 2 13 9 12 14 -1 5 4 10 12 10 17 0 8 -24 -12 -31 -18
-7 -36 2 -28 14 3 5 -4 7 -15 5 -11 -2 -20 2 -20 8 0 7 -5 4 -10 -5 -6 -9 -18
-15 -28 -13 -21 4 -26 -21 -8 -45 9 -13 9 -13 -6 -2 -14 11 -18 10 -27 -5 -6
-10 -11 -13 -11 -7 0 5 6 16 13 23 10 10 9 11 -5 6 -19 -7 -31 -32 -23 -46 4
-5 -1 -6 -9 -3 -9 3 -14 10 -11 14 3 4 -2 11 -11 14 -11 4 -18 -1 -21 -14 -5
-19 -7 -19 -28 -6 -13 8 -26 12 -30 8 -4 -4 -12 -7 -18 -7 -7 -1 -11 -7 -9
-14 2 -9 -5 -12 -22 -9 -16 3 -23 1 -19 -5 4 -6 0 -8 -10 -4 -11 4 -14 2 -10
-9 4 -11 9 -12 19 -3 9 8 18 7 31 -1 17 -11 17 -11 0 -6 -20 6 -61 -16 -50
-27 3 -4 1 -7 -6 -7 -8 0 -10 8 -6 23 4 15 4 18 -3 8 -6 -8 -15 -10 -23 -5
-12 6 -12 5 -1 -8 8 -10 9 -19 3 -22 -5 -4 -14 2 -20 11 -8 14 -10 15 -11 3 0
-13 -2 -13 -9 0 -6 8 -7 19 -4 25 4 5 2 7 -2 2 -11 -10 -14 -48 -3 -41 4 3 8
0 8 -5 0 -6 -6 -11 -12 -11 -9 0 -8 -4 2 -11 13 -9 13 -10 0 -6 -8 2 -15 13
-15 25 0 11 -6 27 -12 33 -10 10 -9 17 5 33 9 11 11 16 5 12 -7 -4 -13 -2 -13
4 0 6 -5 8 -12 4 -9 -5 -8 -2 1 9 13 17 15 17 34 0 19 -18 20 -17 8 5 -12 23
-12 23 12 7 19 -12 27 -13 33 -4 4 7 3 9 -4 5 -12 -7 -42 19 -42 37 0 7 5 4
11 -5 14 -26 36 -11 34 22 -1 21 2 27 9 20 7 -5 21 -7 31 -5 11 2 24 4 29 4 6
1 1 7 -9 15 -22 16 -29 57 -8 49 10 -4 11 -9 3 -18 -9 -10 -7 -13 7 -11 10 2
18 9 18 17 1 8 7 13 15 11 11 -3 11 0 1 12 -14 17 -36 11 -25 -6 4 -7 2 -8 -5
-4 -18 12 8 39 32 32 10 -2 17 -2 14 1 -10 9 17 31 33 26 10 -3 9 -1 -2 7 -10
6 -18 15 -18 20 0 5 8 7 18 3 11 -4 8 1 -8 16 -23 21 -23 21 -2 11 18 -9 22
-8 22 5 0 10 -5 13 -12 9 -10 -5 -10 -3 0 7 11 12 14 12 22 -1 5 -8 6 -18 4
-22 -3 -4 0 -8 6 -8 7 0 9 8 5 21 -6 16 -4 20 6 13 10 -6 10 -3 -1 11 -10 13
-11 16 -2 11 10 -6 13 -2 10 15 -2 13 2 23 7 22 6 -1 17 -3 25 -5 10 -2 15 5
15 23 -1 20 4 25 20 24 26 -3 37 4 29 16 -4 6 -10 6 -18 0 -9 -8 -13 -7 -13 4
0 8 4 12 9 9 12 -8 10 10 -4 26 -11 12 -10 12 3 2 12 -9 20 -9 34 2 14 10 15
15 5 21 -8 5 -11 4 -7 -2 3 -5 0 -10 -7 -10 -11 0 -12 4 -3 18 7 12 14 14 18
8 5 -8 9 -8 13 0 4 6 12 9 17 6 5 -4 10 0 10 7 2 23 -3 43 -13 49 -5 4 -3 9 6
12 9 4 15 1 13 -5 -1 -5 6 -12 16 -13 17 -3 17 -2 4 13 -8 9 -13 28 -11 42 3
18 2 21 -5 10 -5 -8 -7 -18 -5 -22 9 -15 -3 -8 -17 9 -10 11 -10 14 -1 9 7 -4
12 -2 12 8 0 8 3 16 8 19 4 2 0 2 -8 0 -36 -10 -34 -11 -39 28 0 5 -7 7 -13 3
-7 -4 -10 -4 -6 1 4 4 3 16 -3 26 -7 14 -6 17 4 13 8 -3 17 2 21 11 3 10 11
13 18 9 7 -4 9 -3 5 1 -10 12 -38 15 -31 4 3 -5 0 -9 -6 -9 -7 0 -10 13 -8 33
2 24 -1 32 -13 31 -9 -1 -16 5 -16 12 0 7 5 11 10 7 5 -3 6 4 2 17 -4 13 -3
20 2 17 5 -3 9 3 9 13 0 10 -4 16 -8 14 -4 -3 -8 0 -8 6 0 6 -4 9 -8 6 -4 -2
-14 -1 -21 3 -10 7 -11 13 -1 31 9 18 9 24 0 30 -9 6 -9 9 -1 13 8 4 8 5 0 3
-7 -1 -13 -10 -15 -19 -1 -11 2 -14 9 -10 7 4 6 -1 -2 -10 -7 -9 -19 -17 -25
-17 -8 0 -8 2 0 8 6 4 9 16 7 27 -2 11 -5 26 -5 33 -1 6 -4 12 -8 12 -3 0 -6
11 -6 24 0 14 3 23 7 20 4 -2 12 3 18 10 9 11 9 16 0 22 -8 4 -9 3 -5 -4 4 -7
1 -12 -8 -12 -18 0 -21 15 -6 25 6 3 5 15 -2 31 l-12 25 -13 -23 -14 -23 7 25
c3 14 11 31 17 38 7 9 6 11 -8 6 -14 -6 -16 -4 -10 6 5 8 4 11 -3 6 -6 -4 -9
-12 -6 -19 2 -7 -2 -21 -11 -32 -11 -14 -13 -15 -9 -4 3 10 1 20 -5 24 -6 3
-11 11 -11 18 0 6 7 2 15 -9 15 -19 16 -19 13 1 -2 11 -7 23 -13 27 -6 5 -4 8
5 8 12 0 12 2 2 9 -7 4 -15 17 -16 27 -2 10 -9 18 -17 16 -9 -2 -10 0 -1 10
14 18 23 66 12 73 -4 3 -14 -3 -21 -12 -12 -14 -12 -16 0 -8 10 6 12 4 6 -5
-6 -9 -4 -11 6 -5 8 5 10 4 6 0 -10 -12 -39 -16 -32 -5 3 5 1 11 -5 15 -5 3
-10 1 -10 -6 0 -7 -2 -10 -5 -7 -3 3 -2 13 1 22 5 14 9 15 16 4 7 -9 8 -6 5
10 -4 18 -2 22 9 18 8 -3 14 -1 14 4 0 13 -27 13 -35 0 -3 -5 -12 -10 -18 -9
-9 0 -9 2 1 6 6 2 12 13 12 23 0 10 5 22 10 25 16 10 -22 53 -43 49 -10 -1
-15 1 -12 7 4 5 11 7 16 4 5 -4 9 -1 9 5 0 6 4 9 9 5 5 -3 13 0 17 6 4 8 3 9
-4 5 -6 -3 -16 2 -21 13 -8 14 -7 20 4 25 8 3 15 11 14 18 0 10 -2 10 -6 1 -2
-7 -9 -13 -14 -13 -6 0 -7 5 -3 12 4 6 3 8 -3 5 -6 -4 -20 2 -32 12 -26 22
-27 32 -3 25 14 -5 14 -4 2 4 -9 7 -19 7 -25 2 -8 -7 -12 -5 -12 5 0 8 6 15
13 15 7 0 16 6 20 13 4 6 4 9 -1 5 -4 -4 -14 0 -23 8 -12 13 -17 13 -24 2 -7
-10 -8 -8 -4 5 4 12 -1 21 -17 28 -21 9 -21 9 -1 5 24 -4 26 12 6 36 -6 8 -10
17 -7 20 3 3 -1 10 -8 16 -10 9 -14 8 -14 -3 0 -8 5 -11 11 -8 6 3 8 2 3 -2
-4 -5 0 -17 10 -27 9 -10 12 -18 7 -18 -11 0 -39 41 -36 53 1 4 -6 7 -15 8
-11 0 -7 4 10 11 31 11 31 34 0 32 -14 -1 -20 4 -18 15 2 9 4 21 4 28 1 7 7
11 14 9 6 -1 9 -1 4 1 -4 3 -5 9 -1 14 3 5 0 9 -5 9 -6 0 -11 7 -11 16 0 9 5
12 12 8 6 -4 8 -3 5 4 -8 11 -25 11 -44 -1 -6 -4 -14 -3 -18 3 -9 14 -21 12
-35 -5z m56 -3 c5 7 10 3 16 -13 6 -15 5 -25 -2 -27 -5 -2 -7 -9 -3 -15 3 -7
-2 -4 -13 5 -15 13 -23 15 -31 7 -8 -8 -13 -7 -18 2 -5 7 -4 10 3 5 6 -3 13
-2 17 4 3 6 -3 10 -16 10 -18 0 -19 3 -9 15 9 11 17 12 30 5 13 -7 21 -6 26 2z
m4 -76 c0 -2 -8 -10 -17 -17 -16 -13 -17 -12 -4 4 13 16 21 21 21 13z m45 -36
c-3 -5 -12 -10 -18 -10 -7 0 -6 4 3 10 19 12 23 12 15 0z m-205 -160 c0 -5 -5
-10 -11 -10 -5 0 -7 5 -4 10 3 6 8 10 11 10 2 0 4 -4 4 -10z m-15 -40 c4 -6 1
-9 -7 -8 -7 2 -12 -5 -12 -14 1 -10 -4 -14 -13 -11 -11 5 -11 9 3 24 20 22 21
22 29 9z m297 -27 c-6 -2 -9 -10 -6 -15 4 -7 2 -8 -5 -4 -13 9 -5 26 12 25 9
0 8 -2 -1 -6z m41 -29 c0 -5 3 -17 8 -26 7 -14 6 -16 -6 -12 -9 4 -13 9 -10
12 3 3 -2 13 -11 23 -14 16 -14 17 3 15 10 -2 17 -7 16 -12z m-408 -64 c-3 -5
-1 -10 6 -10 7 0 10 -3 6 -6 -9 -9 -28 6 -22 17 4 5 8 9 11 9 3 0 2 -4 -1 -10z
m444 -34 c9 -10 7 -17 -6 -27 -9 -8 -14 -9 -10 -2 4 6 3 14 -3 18 -6 4 -8 11
-5 16 8 12 10 12 24 -5z m-519 -126 c0 -5 -2 -10 -4 -10 -3 0 -8 5 -11 10 -3
6 -1 10 4 10 6 0 11 -4 11 -10z m-55 -80 c3 -5 2 -10 -4 -10 -5 0 -13 5 -16
10 -3 6 -2 10 4 10 5 0 13 -4 16 -10z m699 -106 c3 -8 2 -12 -4 -9 -6 3 -10
10 -10 16 0 14 7 11 14 -7z m-817 -118 c-3 -7 0 -19 6 -25 9 -9 8 -11 -5 -6
-10 4 -18 9 -18 10 0 9 13 35 17 35 3 0 3 -6 0 -14z m-27 -36 c0 -5 -5 -10
-11 -10 -5 0 -7 5 -4 10 3 6 8 10 11 10 2 0 4 -4 4 -10z m920 -75 c0 -7 -30
-13 -34 -7 -3 4 4 9 15 9 10 1 19 0 19 -2z m-1023 -200 c0 -8 -4 -12 -9 -9 -4
3 -8 0 -8 -7 0 -7 -3 -9 -6 -6 -4 4 -1 13 6 22 15 19 17 19 17 0z m1099 -137
c4 -7 3 -8 -4 -4 -7 4 -12 2 -12 -4 0 -6 -5 -8 -11 -4 -8 4 -7 9 2 15 18 11
17 11 25 -3z m-110 -154 c1 -9 0 -13 -4 -10 -3 4 -7 14 -8 22 -1 9 0 13 4 10
3 -4 7 -14 8 -22z m-114 -146 c-14 -14 -44 -20 -36 -7 3 5 10 7 15 4 5 -4 9
-1 9 4 0 6 5 11 12 11 9 0 9 -3 0 -12z m-61 -31 c-10 -9 -11 -8 -5 6 3 10 9
15 12 12 3 -3 0 -11 -7 -18z m-7 -85 c3 -5 -1 -9 -9 -9 -8 0 -15 4 -15 9 0 4
4 8 9 8 6 0 12 -4 15 -8z m421 -12 c-3 -5 -2 -10 4 -10 11 0 9 -26 -4 -37 -4
-4 -6 -3 -2 2 3 6 1 17 -4 25 -8 13 -10 13 -19 0 -6 -9 -10 -10 -10 -3 0 7 8
17 18 22 22 13 25 13 17 1z m-111 -22 c-3 -5 -9 -6 -14 -3 -5 3 -13 -2 -18
-11 -5 -9 -15 -14 -21 -10 -6 4 -9 12 -5 17 3 5 9 7 14 4 5 -3 11 -2 14 3 3 5
12 9 20 9 8 0 13 -4 10 -9z m-1342 -65 c-6 -3 -9 -9 -6 -15 4 -6 -1 -6 -13 1
-11 6 -23 8 -27 6 -3 -3 -3 -2 0 2 3 4 13 8 22 8 10 0 16 6 14 15 -3 13 -1 13
10 1 10 -11 10 -14 0 -18z m88 23 c0 -2 -8 -10 -17 -17 -16 -13 -17 -12 -4 4
13 16 21 21 21 13z m1049 -30 c10 -12 9 -14 -6 -12 -10 2 -21 -1 -24 -6 -3 -5
-9 -2 -12 7 -4 9 -3 13 2 10 5 -3 12 -1 16 5 8 13 10 13 24 -4z m-235 -21 c3
3 2 0 -4 -7 -7 -8 -5 -17 7 -30 10 -11 11 -18 5 -18 -7 0 -12 4 -12 10 0 5 -8
7 -17 4 -11 -4 -14 -2 -8 3 13 10 13 23 0 43 -7 12 -6 13 7 3 8 -7 18 -11 22
-8z m-857 -10 c0 -8 -4 -12 -9 -9 -5 3 -6 10 -3 15 9 13 12 11 12 -6z m850
-72 c-14 -14 -19 -15 -29 -4 -11 10 -10 11 3 6 10 -4 20 -2 24 4 3 6 9 11 13
11 3 0 -1 -8 -11 -17z m-1022 -83 c-3 -5 -1 -10 6 -10 7 0 10 -3 6 -6 -9 -9
-28 6 -22 17 4 5 8 9 11 9 3 0 2 -4 -1 -10z m1646 1 c6 9 9 10 9 2 0 -6 -4
-15 -10 -18 -12 -8 -13 -26 -1 -22 5 1 9 -1 10 -5 3 -21 0 -28 -10 -28 -5 0
-7 5 -3 12 5 7 2 9 -7 6 -11 -4 -14 1 -13 21 4 42 5 47 11 32 5 -11 7 -11 14
0z m-1631 -35 c0 -2 -7 -9 -15 -16 -13 -11 -14 -10 -9 4 5 14 24 23 24 12z
m-10 -160 c0 -3 -4 -8 -10 -11 -5 -3 -10 -1 -10 4 0 6 5 11 10 11 6 0 10 -2
10 -4z m1650 -66 c0 -5 -5 -10 -11 -10 -5 0 -7 5 -4 10 3 6 8 10 11 10 2 0 4
-4 4 -10z m-1663 -109 c0 -11 -5 -18 -9 -15 -4 3 -5 11 -1 19 7 21 12 19 10
-4z m1623 -40 c-6 -12 -15 -21 -21 -21 -6 0 -3 7 5 16 9 8 16 20 16 26 0 6 3
9 6 6 3 -4 1 -16 -6 -27z m58 4 c-10 -10 -49 -14 -43 -4 4 5 10 7 15 4 5 -3
12 0 15 6 4 5 10 8 13 5 3 -3 3 -8 0 -11z m-98 -19 c0 -2 -8 -10 -17 -17 -16
-13 -17 -12 -4 4 13 16 21 21 21 13z m-1545 -46 c-3 -5 -12 -10 -18 -10 -7 0
-6 4 3 10 19 12 23 12 15 0z m1645 -10 c0 -5 -2 -10 -4 -10 -3 0 -8 5 -11 10
-3 6 -1 10 4 10 6 0 11 -4 11 -10z m18 -121 c-3 -8 -7 -3 -11 10 -4 17 -3 21
5 13 5 -5 8 -16 6 -23z m-1741 -171 c-3 -8 -6 -5 -6 6 -1 11 2 17 5 13 3 -3 4
-12 1 -19z m56 -5 c-3 -7 -6 -13 -8 -13 -2 0 -5 6 -8 13 -3 8 1 14 8 14 7 0
11 -6 8 -14z m53 -31 c0 -10 -6 -19 -13 -19 -8 0 -9 6 -2 19 5 10 11 18 12 18
2 0 3 -8 3 -18z m159 9 c-3 -5 -1 -13 5 -16 8 -5 7 -11 -1 -21 -6 -8 -8 -14
-4 -14 4 0 3 -6 -3 -12 -6 -7 -11 -17 -12 -23 -1 -5 -4 -12 -7 -15 -4 -3 -3 0
1 7 3 6 2 15 -4 18 -8 5 -7 12 2 22 7 9 14 24 14 35 2 25 3 28 10 28 3 0 3 -4
-1 -9z m40 -61 c3 -6 -1 -7 -9 -4 -18 7 -21 14 -7 14 6 0 13 -4 16 -10z m-10
-39 c-9 -8 -36 -10 -30 -2 2 4 11 8 20 8 8 0 13 -3 10 -6z m-430 -101 c3 -5 1
-10 -4 -10 -6 0 -11 5 -11 10 0 6 2 10 4 10 3 0 8 -4 11 -10z m32 -5 c0 -8 -4
-12 -9 -9 -5 3 -6 10 -3 15 9 13 12 11 12 -6z m-17 -121 c0 -8 -5 -14 -12 -14
-6 0 -8 3 -5 7 4 3 2 12 -5 20 -8 11 -7 12 6 7 9 -3 16 -12 16 -20z m1909 3
c0 -9 -2 -8 -6 1 -2 6 -10 9 -15 6 -7 -4 -8 -2 -4 5 9 13 26 5 25 -12z m-1896
-47 c3 -11 1 -18 -4 -14 -5 3 -9 12 -9 20 0 20 7 17 13 -6z m-33 -60 l13 -25
-20 20 c-11 11 -18 24 -16 28 6 10 7 9 23 -23z m24 -292 l16 -33 -20 24 c-11
13 -20 27 -20 32 0 17 9 9 24 -23z m1636 -38 c0 -5 -5 -10 -11 -10 -5 0 -7 5
-4 10 3 6 8 10 11 10 2 0 4 -4 4 -10z m-4 -54 c-19 -28 -24 -32 -23 -17 1 12
5 21 10 21 4 0 5 5 2 10 -3 6 1 10 9 10 9 0 16 5 16 12 0 6 2 9 5 6 4 -3 -5
-22 -19 -42z m-1616 18 c0 -8 -19 -13 -24 -6 -3 5 1 9 9 9 8 0 15 -2 15 -3z
m-20 -35 c0 -5 -4 -9 -8 -9 -5 0 -9 7 -9 15 0 8 4 12 9 9 4 -3 8 -9 8 -15z
m1595 -66 c13 -16 24 -32 24 -38 0 -5 -4 -2 -10 8 -8 14 -14 16 -24 7 -16 -13
-35 -5 -34 13 0 9 2 9 6 0 7 -18 23 -16 23 2 0 8 -4 15 -10 15 -5 0 -10 5 -10
10 0 16 10 12 35 -17z m181 -23 c0 -12 -4 -16 -9 -11 -5 5 -6 14 -3 20 10 15
12 14 12 -9z m-176 -20 c0 -5 -5 -10 -11 -10 -5 0 -7 5 -4 10 3 6 8 10 11 10
2 0 4 -4 4 -10z m-1516 -126 c3 -8 2 -12 -4 -9 -6 3 -10 10 -10 16 0 14 7 11
14 -7z m16 -28 c0 -3 -4 -8 -10 -11 -5 -3 -10 -1 -10 4 0 6 5 11 10 11 6 0 10
-2 10 -4z m1627 -73 c-4 -3 -2 -12 3 -18 7 -8 3 -18 -12 -31 -12 -10 -18 -13
-14 -6 4 6 2 12 -4 12 -6 0 -8 5 -4 11 5 8 9 8 14 -1 5 -8 10 -9 14 -2 3 6 2
13 -4 17 -10 6 -5 25 7 25 4 0 3 -3 0 -7z m-1416 -140 c-5 -10 -9 -22 -9 -26
0 -5 -3 -11 -6 -14 -7 -7 1 34 9 47 11 17 16 11 6 -7z m1372 -18 c4 -8 3 -16
-1 -19 -4 -3 -9 4 -9 15 -2 23 3 25 10 4z m-1205 -140 c-3 -3 -9 2 -12 12 -6
14 -5 15 5 6 7 -7 10 -15 7 -18z m1108 -44 c-4 -6 -13 -11 -19 -11 -8 0 -7 3
2 9 8 5 10 14 6 22 -6 11 -5 11 5 2 7 -6 9 -16 6 -22z m-1244 -15 c10 1 20 -2
24 -7 3 -5 10 -6 16 -3 6 4 8 2 5 -3 -8 -12 -47 -24 -45 -14 2 19 -4 22 -19
10 -11 -10 -14 -10 -9 -1 7 11 -5 17 -28 13 -5 -1 -3 5 4 14 12 14 15 15 24 2
6 -7 19 -13 28 -11z m32 -54 c2 -4 -4 -8 -14 -8 -10 0 -16 4 -14 8 3 4 9 8 14
8 5 0 11 -4 14 -8z m-68 -139 c9 -21 11 -29 13 -44 0 -5 6 -7 11 -4 17 10 11
-2 -7 -16 -10 -7 -15 -9 -10 -4 4 4 0 19 -8 32 -9 13 -13 23 -9 23 4 0 1 7 -6
15 -7 9 -8 15 -2 15 5 0 13 -8 18 -17z m951 -178 c0 -8 -4 -12 -9 -9 -5 3 -6
10 -3 15 9 13 12 11 12 -6z m-750 -81 c-6 -7 17 -34 28 -34 4 0 16 -11 27 -25
11 -14 25 -22 31 -18 7 3 9 2 4 -2 -4 -5 5 -15 20 -22 23 -10 24 -12 4 -7 -18
5 -22 3 -16 -7 4 -8 -5 1 -21 18 -16 18 -47 48 -69 68 -31 27 -36 34 -21 35
11 0 17 -3 13 -6z m607 -46 c-5 -8 -1 -9 12 -5 16 6 15 4 -4 -12 -13 -11 -22
-23 -22 -26 1 -4 -1 -9 -3 -12 -5 -4 -1 29 3 35 2 1 4 7 5 12 1 6 3 12 4 15 0
3 4 5 7 5 3 0 2 -5 -2 -12z m-81 -83 c9 -21 -9 -27 -24 -8 -10 12 -10 14 -1 9
6 -4 12 -2 12 3 0 16 7 13 13 -4z m-43 -155 c6 -11 15 -18 21 -15 5 4 7 -4 5
-17 -2 -13 1 -28 6 -35 6 -7 5 -14 -3 -19 -8 -4 -9 -3 -5 4 4 7 2 12 -4 12 -7
0 -10 6 -7 13 6 16 -23 65 -42 70 -13 4 -13 5 1 6 10 0 22 -8 28 -19z m-6 -36
c3 -8 2 -12 -4 -9 -6 3 -10 10 -10 16 0 14 7 11 14 -7z m-79 -13 c-3 -6 -11
-11 -16 -11 -5 0 -4 6 3 14 14 16 24 13 13 -3z m2 -56 c0 -8 -4 -12 -9 -9 -4
3 -8 9 -8 15 0 5 4 9 8 9 5 0 9 -7 9 -15z m24 -104 c-8 -15 -7 -20 5 -25 17
-6 10 -26 -9 -26 -8 0 -8 3 1 9 11 7 10 9 -3 14 -13 5 -14 11 -5 27 6 11 13
20 16 20 2 0 0 -9 -5 -19z m110 -14 c-13 -13 -26 -3 -16 12 3 6 11 8 17 5 6
-4 6 -10 -1 -17z m-4 -24 c-4 -3 -2 -12 4 -20 6 -7 8 -13 4 -13 -5 0 0 -9 9
-19 16 -18 16 -20 -9 -47 -19 -20 -24 -23 -19 -8 4 10 14 24 22 30 13 9 11 13
-9 27 -13 10 -17 17 -10 17 10 0 11 3 2 13 -10 12 -6 27 7 27 3 0 2 -3 -1 -7z
m-77 -18 c-10 -12 -9 -15 5 -15 10 0 16 -3 12 -6 -3 -3 -15 -3 -27 1 -20 6
-21 7 -3 21 24 18 28 17 13 -1z m20 -195 c0 -5 -5 -10 -11 -10 -5 0 -7 5 -4
10 3 6 8 10 11 10 2 0 4 -4 4 -10z m14 -36 c3 -8 2 -12 -4 -9 -6 3 -10 10 -10
16 0 14 7 11 14 -7z m21 -46 c5 -4 0 -6 -12 -6 -13 1 -19 7 -16 15 3 8 8 10
12 6 3 -4 10 -11 16 -15z m112 -15 c-4 -3 -2 -12 4 -20 9 -10 8 -13 -5 -13
-10 0 -14 5 -11 10 3 6 0 10 -7 10 -9 0 -9 3 2 10 17 11 26 13 17 3z m-102
-73 c3 -5 1 -10 -4 -10 -6 0 -11 5 -11 10 0 6 2 10 4 10 3 0 8 -4 11 -10z m21
-38 c1 -7 0 -8 -3 -2 -2 5 -9 8 -13 5 -5 -3 -12 0 -15 6 -5 7 -1 10 10 7 10
-1 20 -9 21 -16z m71 -197 c0 -8 -4 -12 -9 -9 -5 3 -6 10 -3 15 9 13 12 11 12
-6z m-37 -13 c0 -13 -12 -22 -22 -16 -10 6 -1 24 13 24 5 0 9 -4 9 -8z m155
-22 c3 -5 1 -10 -4 -10 -6 0 -11 5 -11 10 0 6 2 10 4 10 3 0 8 -4 11 -10z m48
-233 c3 -8 -1 -14 -8 -14 -7 0 -11 6 -8 14 3 7 6 13 8 13 2 0 5 -6 8 -13z m33
-20 c1 -7 -8 -14 -20 -14 -19 -2 -19 -1 -3 8 15 9 16 13 6 27 -11 14 -11 15 1
5 8 -7 15 -19 16 -26z m-163 8 c-3 -9 -8 -14 -10 -11 -3 3 -2 9 2 15 9 16 15
13 8 -4z m-13 -35 c0 -5 -2 -10 -4 -10 -3 0 -8 5 -11 10 -3 6 -1 10 4 10 6 0
11 -4 11 -10z m54 -6 c3 -8 2 -12 -4 -9 -6 3 -10 10 -10 16 0 14 7 11 14 -7z
m-1 -126 c-16 -17 -9 -24 20 -19 4 0 7 -3 7 -9 0 -15 -26 -12 -39 4 -8 10 -9
16 -1 21 6 3 8 10 6 14 -3 4 1 8 9 8 13 0 12 -4 -2 -19z m161 7 c3 3 2 0 -3
-6 -5 -6 -7 -19 -4 -28 4 -9 3 -13 -1 -9 -4 3 -9 14 -11 25 -1 10 -8 17 -15
15 -6 -1 -9 2 -5 8 5 8 11 8 19 1 7 -6 16 -9 20 -6z m-11 -68 c-5 -8 -8 -8
-10 0 -3 7 -12 9 -21 6 -14 -4 -14 -3 -3 5 17 12 43 4 34 -11z"/>
<path d="M3700 6755 c0 -10 29 -24 34 -17 3 6 -3 12 -14 15 -11 3 -20 4 -20 2z"/>
<path d="M3760 6700 c-13 -8 -13 -10 2 -10 9 0 20 5 23 10 8 13 -5 13 -25 0z"/>
<path d="M3827 6555 c-8 -19 12 -30 26 -16 9 9 7 10 -8 5 -18 -7 -18 -6 -6 9
7 9 9 17 3 17 -5 0 -12 -7 -15 -15z"/>
<path d="M3533 6525 c0 -8 4 -12 9 -9 5 3 6 10 3 15 -9 13 -12 11 -12 -6z"/>
<path d="M3461 6386 c-10 -11 -9 -14 1 -12 14 2 23 15 15 22 -2 2 -10 -2 -16
-10z"/>
<path d="M3985 6140 c3 -5 10 -10 16 -10 5 0 9 5 9 10 0 6 -7 10 -16 10 -8 0
-12 -4 -9 -10z"/>
<path d="M3990 6116 c0 -2 7 -7 16 -10 8 -3 12 -2 9 4 -6 10 -25 14 -25 6z"/>
<path d="M3285 6028 c5 -13 2 -18 -11 -18 -16 0 -17 -2 -4 -10 19 -12 37 17
20 33 -8 9 -10 8 -5 -5z"/>
<path d="M4067 5924 c-3 -4 -2 -14 3 -24 5 -10 6 -21 2 -25 -4 -5 -2 -5 4 -2
6 4 12 18 12 32 0 24 -8 31 -21 19z"/>
<path d="M3179 5888 c-5 -18 -6 -38 -1 -34 7 8 12 36 6 36 -2 0 -4 -1 -5 -2z"/>
<path d="M4111 5816 c-15 -17 -1 -28 19 -15 11 6 12 9 2 9 -7 0 -10 5 -7 10 9
15 -1 12 -14 -4z"/>
<path d="M4150 5721 c0 -6 4 -13 10 -16 6 -3 7 1 4 9 -7 18 -14 21 -14 7z"/>
<path d="M4172 5607 c-7 -8 -6 -18 4 -31 7 -10 11 -23 7 -29 -4 -6 -1 -7 6 -3
7 5 10 14 7 22 -3 7 -1 16 4 19 6 4 10 12 10 18 0 7 -4 6 -10 -3 -9 -13 -14
-7 -11 13 2 11 -5 9 -17 -6z"/>
<path d="M4215 5581 c-3 -5 -2 -12 3 -15 5 -3 9 1 9 9 0 17 -3 19 -12 6z"/>
<path d="M4067 5251 c6 -7 9 -20 6 -27 -3 -8 -3 -14 0 -14 14 0 14 30 -1 41
-14 11 -15 11 -5 0z"/>
<path d="M2896 5218 c3 -5 10 -6 15 -3 13 9 11 12 -6 12 -8 0 -12 -4 -9 -9z"/>
<path d="M4226 5018 c3 -4 9 -8 15 -8 5 0 9 4 9 8 0 5 -7 9 -15 9 -8 0 -12 -4
-9 -9z"/>
<path d="M4115 4970 c-3 -6 1 -7 9 -4 18 7 21 14 7 14 -6 0 -13 -4 -16 -10z"/>
<path d="M4091 4954 c0 -11 3 -14 6 -6 3 7 2 16 -1 19 -3 4 -6 -2 -5 -13z"/>
<path d="M3935 4921 c-3 -5 -2 -12 3 -15 5 -3 9 1 9 9 0 17 -3 19 -12 6z"/>
<path d="M3856 4882 c-3 -5 1 -9 9 -9 8 0 12 4 9 9 -3 4 -7 8 -9 8 -2 0 -6 -4
-9 -8z"/>
<path d="M4375 4770 c-4 -6 -4 -14 -1 -17 3 -4 6 0 6 8 0 11 2 11 10 -1 8 -13
12 -12 27 4 12 13 13 16 2 8 -11 -8 -19 -8 -26 -1 -8 8 -13 7 -18 -1z"/>
<path d="M2725 4609 c-4 -6 -5 -12 -2 -15 2 -3 7 2 10 11 7 17 1 20 -8 4z"/>
<path d="M2710 4566 c7 -7 13 -7 20 0 6 6 3 10 -10 10 -13 0 -16 -4 -10 -10z"/>
<path d="M2700 4540 c-8 -5 -10 -10 -5 -10 6 0 17 5 25 10 8 5 11 10 5 10 -5
0 -17 -5 -25 -10z"/>
<path d="M4430 4500 c0 -5 5 -10 11 -10 5 0 7 5 4 10 -3 6 -8 10 -11 10 -2 0
-4 -4 -4 -10z"/>
<path d="M2655 4440 c3 -5 8 -10 11 -10 2 0 4 5 4 10 0 6 -5 10 -11 10 -5 0
-7 -4 -4 -10z"/>
<path d="M2661 4411 c-7 -5 -9 -11 -5 -14 5 -3 15 1 22 9 14 16 5 18 -17 5z"/>
<path d="M4400 4380 c-8 -5 -10 -10 -5 -10 6 0 17 5 25 10 8 5 11 10 5 10 -5
0 -17 -5 -25 -10z"/>
<path d="M2672 4357 c1 -14 7 -25 13 -24 5 1 9 -5 7 -13 -3 -12 -1 -13 10 -2
8 8 9 15 3 20 -6 4 -10 13 -10 21 0 8 -6 16 -12 18 -9 3 -12 -4 -11 -20z"/>
<path d="M4425 4360 c3 -5 11 -10 16 -10 6 0 7 5 4 10 -3 6 -11 10 -16 10 -6
0 -7 -4 -4 -10z"/>
<path d="M4455 4320 c-3 -5 -1 -10 4 -10 6 0 11 5 11 10 0 6 -2 10 -4 10 -3 0
-8 -4 -11 -10z"/>
<path d="M4429 4290 c-9 -6 3 -19 46 -50 11 -8 17 -10 13 -6 -4 5 0 15 10 23
15 13 15 13 -5 3 -21 -10 -35 2 -15 13 4 2 1 2 -5 1 -7 -2 -13 1 -13 5 0 5 6
11 13 14 6 3 2 4 -11 4 -12 -1 -27 -4 -33 -7z m25 -16 c3 -8 2 -12 -4 -9 -6 3
-10 10 -10 16 0 14 7 11 14 -7z"/>
<path d="M2720 4271 c0 -6 4 -13 10 -16 6 -3 7 1 4 9 -7 18 -14 21 -14 7z"/>
<path d="M2786 4213 c-11 -11 -6 -23 9 -23 8 0 15 4 15 9 0 13 -16 22 -24 14z"/>
<path d="M4490 4206 c0 -2 7 -7 16 -10 8 -3 12 -2 9 4 -6 10 -25 14 -25 6z"/>
<path d="M4496 4162 c-2 -4 -1 -14 4 -22 7 -11 9 -9 7 8 -1 24 -3 26 -11 14z"/>
<path d="M4485 4107 c-12 -10 -14 -16 -7 -21 7 -4 12 -4 12 0 0 4 10 -1 23
-12 l22 -19 -18 22 c-11 12 -16 27 -12 32 8 15 3 14 -20 -2z"/>
<path d="M4490 3986 c0 -2 9 -6 20 -9 11 -3 18 -1 14 4 -5 9 -34 13 -34 5z"/>
<path d="M2910 3960 c0 -5 5 -10 10 -10 6 0 10 5 10 10 0 6 -4 10 -10 10 -5 0
-10 -4 -10 -10z"/>
<path d="M2582 3955 c4 -4 3 -14 -4 -22 -6 -7 -9 -15 -7 -18 3 -2 10 4 17 15
9 15 9 21 -1 26 -6 4 -9 4 -5 -1z"/>
<path d="M2514 3753 c16 -20 36 -23 36 -6 0 4 -3 3 -7 0 -3 -4 -16 1 -27 10
-21 18 -21 18 -2 -4z"/>
<path d="M4499 3737 c7 -7 14 -8 21 -1 6 6 2 10 -12 11 -16 2 -18 -1 -9 -10z"/>
<path d="M4510 3636 c0 -8 4 -17 9 -20 5 -4 7 3 4 14 -6 23 -13 26 -13 6z"/>
<path d="M2514 3449 c0 -10 4 -19 8 -19 4 0 8 6 8 14 0 8 -4 17 -8 20 -4 2 -8
-4 -8 -15z"/>
<path d="M4425 3349 c-4 -6 -5 -12 -2 -15 2 -3 7 2 10 11 7 17 1 20 -8 4z"/>
<path d="M2528 3321 c3 -9 9 -21 13 -27 5 -6 7 -13 4 -16 -3 -2 2 -5 10 -5 19
0 19 5 -1 24 -8 9 -13 21 -11 28 3 6 -1 12 -8 12 -8 0 -11 -7 -7 -16z"/>
<path d="M4410 3300 c0 -5 5 -10 11 -10 5 0 7 5 4 10 -3 6 -8 10 -11 10 -2 0
-4 -4 -4 -10z"/>
<path d="M4270 3139 c0 -5 5 -7 10 -4 6 3 10 8 10 11 0 2 -4 4 -10 4 -5 0 -10
-5 -10 -11z"/>
<path d="M2570 2980 c0 -5 5 -10 11 -10 5 0 7 5 4 10 -3 6 -8 10 -11 10 -2 0
-4 -4 -4 -10z"/>
<path d="M4285 2630 c-3 -5 -5 -10 -3 -11 33 -8 38 -7 27 7 -14 17 -16 17 -24
4z"/>
<path d="M4237 2545 c-4 -8 -3 -16 1 -19 4 -3 9 4 9 15 2 23 -3 25 -10 4z"/>
<path d="M2940 2486 c0 -2 8 -10 18 -17 15 -13 16 -12 3 4 -13 16 -21 21 -21
13z"/>
<path d="M2761 2434 c0 -11 3 -14 6 -6 3 7 2 16 -1 19 -3 4 -6 -2 -5 -13z"/>
<path d="M2782 2419 c-7 -11 -10 -24 -7 -29 4 -6 1 -10 -4 -10 -6 0 -11 -7
-11 -15 0 -8 6 -15 14 -15 17 0 27 35 14 48 -16 16 9 24 33 11 15 -7 19 -8 15
0 -16 25 -42 30 -54 10z"/>
<path d="M2995 2400 c3 -5 8 -10 11 -10 2 0 4 5 4 10 0 6 -5 10 -11 10 -5 0
-7 -4 -4 -10z"/>
<path d="M2741 2391 c-8 -5 -9 -11 -3 -15 5 -3 12 1 16 9 6 17 6 18 -13 6z"/>
<path d="M2850 2240 c0 -5 5 -10 11 -10 5 0 7 5 4 10 -3 6 -8 10 -11 10 -2 0
-4 -4 -4 -10z"/>
<path d="M4075 2219 c-4 -6 -5 -12 -2 -15 2 -3 7 2 10 11 7 17 1 20 -8 4z"/>
<path d="M2830 2216 c0 -2 8 -10 18 -17 15 -13 16 -12 3 4 -13 16 -21 21 -21
13z"/>
<path d="M3975 2081 c-3 -5 -2 -12 3 -15 5 -3 9 1 9 9 0 17 -3 19 -12 6z"/>
<path d="M2970 2020 c0 -5 5 -10 11 -10 5 0 7 5 4 10 -3 6 -8 10 -11 10 -2 0
-4 -4 -4 -10z"/>
<path d="M3850 1979 c0 -5 5 -7 10 -4 6 3 10 8 10 11 0 2 -4 4 -10 4 -5 0 -10
-5 -10 -11z"/>
<path d="M3050 1971 c0 -6 -6 -8 -14 -5 -8 3 -17 1 -21 -5 -4 -7 0 -8 11 -4
13 5 15 3 9 -8 -7 -12 -6 -12 11 1 10 8 20 15 22 16 2 1 -1 5 -7 9 -6 3 -11 2
-11 -4z"/>
<path d="M3716 1835 c-11 -8 -15 -15 -9 -15 6 0 16 7 23 15 16 19 11 19 -14 0z"/>
<path d="M3245 1810 c-5 -8 -4 -15 3 -18 6 -2 10 -9 8 -15 -1 -7 -1 -9 1 -4 3
4 10 4 16 0 9 -5 9 -3 1 8 -6 8 -13 21 -16 29 -4 12 -6 12 -13 0z"/>
<path d="M3320 1765 c0 -14 13 -30 26 -32 6 -1 11 4 11 12 0 8 -5 11 -10 8 -5
-3 -13 1 -18 8 -5 8 -9 10 -9 4z"/>
<path d="M3589 1760 c-1 -8 -1 -21 0 -29 2 -7 -2 -10 -8 -6 -6 3 -11 1 -11 -4
0 -17 18 -13 29 7 6 11 6 24 0 33 -7 12 -9 12 -10 -1z"/>
<path d="M3270 1750 c0 -5 5 -10 10 -10 6 0 10 5 10 10 0 6 -4 10 -10 10 -5 0
-10 -4 -10 -10z"/>
<path d="M3706 1161 c-3 -5 2 -15 12 -22 15 -12 16 -12 5 2 -7 9 -10 19 -6 22
3 4 4 7 0 7 -3 0 -8 -4 -11 -9z"/>
<path d="M3754 1068 l-19 -23 23 19 c21 18 27 26 19 26 -2 0 -12 -10 -23 -22z"/>
<path d="M3555 1060 c3 -5 8 -10 11 -10 2 0 4 5 4 10 0 6 -5 10 -11 10 -5 0
-7 -4 -4 -10z"/>
<path d="M3790 880 c-13 -8 -12 -10 3 -10 9 0 17 5 17 10 0 12 -1 12 -20 0z"/>
<path d="M3813 835 c0 -8 4 -12 9 -9 4 3 8 9 8 15 0 5 -4 9 -8 9 -5 0 -9 -7
-9 -15z"/>
<path d="M3827 795 c3 -8 9 -12 14 -9 12 7 11 11 -5 17 -10 4 -13 1 -9 -8z"/>
<path d="M3669 742 c-5 -43 -5 -53 1 -63 6 -8 9 -8 14 0 4 6 2 11 -4 11 -6 0
-4 10 5 24 14 21 14 24 0 29 -8 4 -15 3 -16 -1z"/>
<path d="M3635 711 c-3 -5 -2 -12 3 -15 5 -3 9 1 9 9 0 17 -3 19 -12 6z"/>
<path d="M3885 579 c-4 -6 -5 -12 -2 -15 2 -3 7 2 10 11 7 17 1 20 -8 4z"/>
<path d="M3686 572 c-3 -6 -1 -14 5 -17 15 -10 25 3 12 16 -7 7 -13 7 -17 1z"/>
<path d="M3931 487 c-1 -11 -6 -15 -13 -11 -7 5 -8 3 -3 -5 10 -16 29 2 22 21
-4 8 -6 7 -6 -5z"/>
</g>
</svg>
